<?xml version="1.0" encoding="UTF-8" standalone="no"?>
<!DOCTYPE svg PUBLIC "-//W3C//DTD SVG 1.1//EN" "http://www.w3.org/Graphics/SVG/1.1/DTD/svg11.dtd">
<svg width="100%" height="100%" viewBox="0 0 100 78" version="1.1" xmlns="http://www.w3.org/2000/svg" xmlns:xlink="http://www.w3.org/1999/xlink" xml:space="preserve" xmlns:serif="http://www.serif.com/" style="fill-rule:evenodd;clip-rule:evenodd;stroke-linejoin:round;stroke-miterlimit:2;">
    <g transform="matrix(1,0,0,1,-5027.02,-1819.99)">
        <g id="Artboard12" transform="matrix(0.111864,0,0,0.158646,4474.04,1588.4)">
            <rect x="4943.35" y="1459.8" width="887.653" height="491.661" style="fill:none;"/>
            <g transform="matrix(1.03185,0,0,0.727578,3612.69,-326.89)">
                <path d="M2117.82,2989.91C2052.85,2989.35 1356.51,2999.71 1319.99,2998.4C1318.2,2998.33 1307.45,2503.15 1317.87,2484.62C1318.74,2483.07 2108.09,2474.99 2125.78,2485.24C2127.62,2486.3 2119.16,2989.92 2117.82,2989.91Z" style="fill:rgb(255,188,0);"/>
            </g>
            <g transform="matrix(1.03185,0,0,0.727578,3612.69,-326.89)">
                <path d="M2117.73,2999.83C2118.86,2999.84 2126.42,2999.64 2127.67,2991.22C2127.82,2990.24 2128.08,2984.94 2128.33,2976.09C2130.43,2902.62 2136.07,2564.57 2135.96,2496.99C2135.95,2489.3 2135.76,2484.69 2135.61,2483.76C2134.79,2478.83 2131.66,2477.18 2130.75,2476.65C2129.61,2475.99 2126.78,2474.93 2122.18,2474.36C2111.77,2473.05 2086.3,2472.07 2050.5,2471.42C1874.05,2468.21 1443.03,2472.18 1340.05,2474.06C1326.7,2474.3 1318.67,2474.54 1317.13,2474.7C1311.31,2475.29 1309.53,2479.2 1309.23,2479.75C1308.36,2481.29 1307.2,2484.86 1306.52,2490.43C1305.46,2499.08 1304.69,2514.62 1304.21,2535.05C1301.48,2649.43 1306.93,2920.43 1309.3,2984.86C1309.63,2993.83 1310.01,2999.2 1310.2,3000.19C1311.74,3007.88 1318.24,3008.26 1319.63,3008.31C1356.16,3009.63 2052.74,2999.27 2117.73,2999.83ZM2116.1,2494L2116.12,2497.02C2116.22,2564.51 2110.59,2902.14 2108.5,2975.53L2108.35,2979.97C2008.04,2980.16 1415.47,2988.86 1329.31,2988.59L1329.13,2984.13C1326.77,2919.87 1321.33,2649.6 1324.05,2535.52C1324.45,2518.43 1325.69,2502.35 1326.4,2494.22C1330.05,2494.12 1334.88,2494 1340.41,2493.9C1443.29,2492.03 1873.87,2488.05 2050.14,2491.26C2079.03,2491.78 2104.88,2493.28 2116.1,2494Z" style="fill:rgb(18,15,47);"/>
            </g>
            <g transform="matrix(0.994752,0,0,0.666802,3679.24,-164.153)">
                <path d="M2078.92,2945.44C2032.33,2947.22 1594.92,2954.81 1475.67,2955.28C1440.34,2955.43 1405,2955.88 1369.67,2955.81C1369.38,2955.81 1366.98,2956.03 1366.83,2955.77C1363.29,2949.66 1359.72,2524.73 1360.66,2524.26C1369.7,2519.67 1505.53,2524.1 1517.78,2524.09C1659.05,2524.04 1800.27,2522.65 1941.53,2522.28C1955.28,2522.25 2080.14,2523.77 2080.32,2525.93C2086.23,2593.76 2079.53,2945.42 2078.92,2945.44Z" style="fill:white;"/>
            </g>
            <g transform="matrix(0.994752,0,0,0.666802,3679.24,-164.153)">
                <path d="M2079.3,2956.26C2080.1,2956.23 2088.21,2955.77 2089.17,2946.52C2089.24,2945.83 2089.4,2942.09 2089.56,2935.81C2091.04,2878.03 2095.91,2586.18 2090.57,2524.94C2090.37,2522.54 2089.51,2519.66 2086.54,2517.27C2085.92,2516.77 2082.98,2514.99 2077.63,2514.51C2057.01,2512.68 1953.96,2511.43 1941.51,2511.46C1800.26,2511.83 1659.04,2513.21 1517.78,2513.27C1507.96,2513.27 1418.88,2510.44 1379,2511.66C1366.79,2512.03 1358.41,2513.38 1356.19,2514.51C1355.49,2514.86 1351.03,2516.69 1350.39,2523.31C1350.31,2524.18 1350.23,2528.73 1350.22,2536.28C1350.15,2598.68 1352.75,2884.53 1355.6,2945.09C1355.88,2951.16 1356.22,2955.23 1356.51,2956.93C1356.9,2959.29 1357.64,2960.71 1358.04,2961.4C1358.96,2962.98 1360.67,2965.17 1364.03,2966.22C1365.08,2966.54 1370.06,2966.62 1370.06,2966.62C1370.06,2966.62 1369.74,2966.63 1369.65,2966.63C1405,2966.7 1440.36,2966.25 1475.71,2966.11C1595.03,2965.63 2032.68,2958.04 2079.3,2956.26L2079.3,2956.26ZM2070.69,2535.73C2074.96,2611.49 2070.41,2879.2 2068.99,2934.92C1989.99,2937.12 1588.99,2944.01 1475.63,2944.46C1442.54,2944.59 1409.43,2944.99 1376.33,2944.98C1375.99,2938.21 1375.53,2927.86 1375.23,2916.38C1372.78,2823.17 1370.74,2591.65 1370.8,2536.3L1370.81,2533.79C1373.41,2533.59 1376.51,2533.39 1379.6,2533.3C1419.3,2532.09 1508.01,2534.92 1517.79,2534.92C1659.06,2534.87 1800.29,2533.48 1941.56,2533.11C1953.02,2533.08 2042.15,2534.12 2070.69,2535.73Z" style="fill:rgb(18,15,47);"/>
            </g>
            <g transform="matrix(0.336875,0,0,0.488841,4630.07,471.5)">
                <path d="M2117.82,2989.91C2052.85,2989.35 1356.51,2999.71 1319.99,2998.4C1318.2,2998.33 1307.45,2503.15 1317.87,2484.62C1318.74,2483.07 2108.09,2474.99 2125.78,2485.24C2127.62,2486.3 2119.16,2989.92 2117.82,2989.91Z" style="fill:rgb(44,195,168);"/>
            </g>
            <g transform="matrix(0.336875,0,0,0.488841,4630.07,471.5)">
                <path d="M2117.28,3004.67C2119.09,3004.69 2146.17,3004.28 2148.17,2990.82C2148.31,2989.87 2148.55,2984.68 2148.8,2976.01C2150.9,2902.55 2156.53,2564.56 2156.43,2496.99C2156.42,2489.55 2156.26,2485.1 2156.12,2484.2C2155.22,2478.78 2150.06,2476.32 2149.06,2475.74C2146.2,2474.09 2140.08,2471.35 2128.55,2469.9C2117.35,2468.49 2089.98,2467.28 2051.45,2466.58C1874.54,2463.37 1442.35,2467.34 1339.09,2469.22C1323.26,2469.51 1313.75,2469.93 1311.92,2470.11C1293.05,2472.03 1289.55,2478.95 1288.56,2480.72C1286.54,2484.3 1284.47,2504.45 1283.74,2535.12C1281.01,2649.45 1286.46,2920.35 1288.83,2984.76C1289.15,2993.48 1289.49,2998.71 1289.68,2999.67C1292.17,3012.11 1315.49,3013.04 1317.74,3013.12C1354.34,3014.44 2052.17,3004.11 2117.28,3004.67ZM2095.64,2497.62C2095.72,2566.42 2090.14,2901.28 2088.04,2975.24C1953.43,2976.19 1472.57,2983.16 1349.58,2983.74C1347.21,2918.6 1341.8,2649.29 1344.51,2535.46C1344.85,2521.18 1345.78,2507.6 1346.51,2498.65C1457.56,2496.74 1876.19,2492.95 2049.18,2496.1C2066.27,2496.41 2083.39,2497.07 2095.64,2497.62Z" style="fill:rgb(18,15,47);"/>
            </g>
            <g transform="matrix(0.263153,0,0,0.43765,4757.76,612.898)">
                <path d="M2078.92,2945.44C2032.33,2947.22 1594.92,2954.81 1475.67,2955.28C1440.34,2955.43 1405,2955.88 1369.67,2955.81C1369.38,2955.81 1366.98,2956.03 1366.83,2955.77C1363.29,2949.66 1359.72,2524.73 1360.66,2524.26C1369.7,2519.67 1505.53,2524.1 1517.78,2524.09C1659.05,2524.04 1800.27,2522.65 1941.53,2522.28C1955.28,2522.25 2080.14,2523.77 2080.32,2525.93C2086.23,2593.76 2079.53,2945.42 2078.92,2945.44Z" style="fill:white;"/>
            </g>
            <g transform="matrix(0.263153,0,0,0.43765,4757.76,612.898)">
                <path d="M2082.41,2961.87C2083.67,2961.82 2116.3,2960.45 2117.81,2946.06C2117.88,2945.4 2118.01,2941.78 2118.17,2935.7C2119.65,2877.99 2124.53,2586.48 2119.2,2525.32C2118.95,2522.44 2115.08,2511.85 2084.73,2509.15C2063,2507.22 1954.42,2505.76 1941.29,2505.79C1800.1,2506.16 1658.95,2507.55 1517.75,2507.6C1507.75,2507.6 1417.09,2504.79 1376.5,2506.03C1350.91,2506.81 1335.45,2511.32 1330.8,2513.68C1330.09,2514.05 1322.41,2516.97 1321.76,2523.73C1321.68,2524.57 1321.61,2528.97 1321.61,2536.28C1321.53,2606.17 1325.83,2954.15 1329.05,2959.7C1330.89,2962.87 1334.65,2965.64 1340.49,2967.93C1344.83,2969.63 1351.03,2971.31 1359.45,2972.04C1363.52,2972.39 1374.94,2972.15 1374.94,2972.15C1374.94,2972.15 1370.3,2972.3 1369.5,2972.3C1405.01,2972.37 1440.53,2971.92 1476.04,2971.78C1595.9,2971.3 2035.58,2963.66 2082.41,2961.87ZM2042.34,2540.84C2046.03,2621 2042,2866.13 2040.49,2929.94C1923.82,2932.58 1578.89,2938.38 1475.31,2938.79C1451.42,2938.89 1427.53,2939.12 1403.64,2939.24C1401.07,2877.34 1399.4,2606.66 1399.42,2539.5C1438.13,2539.89 1510.23,2540.59 1517.82,2540.59C1659.15,2540.53 1800.44,2539.15 1941.77,2538.78C1949.81,2538.76 2007.54,2540.04 2042.34,2540.84Z" style="fill:rgb(18,15,47);"/>
            </g>
            <g transform="matrix(0.990912,0,0,0.698709,-917.484,1402.09)">
                <path d="M6202.91,530.117C6190.92,526.391 6178.09,526.391 6166.11,530.117C6167.65,535.24 6169.21,540.359 6170.77,545.475C6164.32,547.497 6158.4,550.917 6153.43,555.492C6149.78,551.578 6146.12,547.67 6142.46,543.77C6133.24,552.285 6126.82,563.399 6124.06,575.64C6129.27,576.862 6134.48,578.074 6139.69,579.276C6138.22,585.873 6138.22,592.714 6139.69,599.31C6134.48,600.512 6129.27,601.724 6124.06,602.946C6126.82,615.187 6133.24,626.301 6142.46,634.816C6146.12,630.916 6149.78,627.009 6153.43,623.094C6158.4,627.669 6164.32,631.09 6170.77,633.111C6169.21,638.227 6167.65,643.347 6166.11,648.469C6178.09,652.195 6190.92,652.195 6202.91,648.469C6201.36,643.347 6199.8,638.227 6198.24,633.111C6204.69,631.09 6210.61,627.669 6215.59,623.094C6219.24,627.009 6222.89,630.916 6226.55,634.816C6235.77,626.301 6242.19,615.187 6244.95,602.946C6239.74,601.724 6234.53,600.512 6229.32,599.31C6230.79,592.714 6230.79,585.873 6229.32,579.276C6234.53,578.074 6239.74,576.862 6244.95,575.64C6242.19,563.399 6235.77,552.285 6226.55,543.77C6222.89,547.67 6219.24,551.578 6215.59,555.492C6210.61,550.917 6204.69,547.497 6198.24,545.475C6199.8,540.359 6201.36,535.24 6202.91,530.117ZM6184.51,565.545C6197.61,565.545 6208.26,576.186 6208.26,589.293C6208.26,602.4 6197.61,613.042 6184.51,613.042C6171.4,613.042 6160.76,602.4 6160.76,589.293C6160.76,576.186 6171.4,565.545 6184.51,565.545Z"/>
            </g>
            <g transform="matrix(0.990912,0,0,0.698709,-917.484,1402.09)">
                <path d="M6206.2,531.112C6206.75,529.302 6205.73,527.39 6203.93,526.829C6191.28,522.895 6177.73,522.895 6165.08,526.829C6163.28,527.39 6162.26,529.302 6162.81,531.112C6164.04,535.185 6165.27,539.256 6166.52,543.325C6161.89,545.134 6157.57,547.631 6153.69,550.729C6150.79,547.619 6147.88,544.514 6144.97,541.412C6143.67,540.034 6141.51,539.957 6140.12,541.24C6130.39,550.229 6123.62,561.96 6120.7,574.881C6120.28,576.726 6121.43,578.561 6123.27,578.993C6127.41,579.965 6131.56,580.93 6135.7,581.889C6134.96,586.797 6134.96,591.789 6135.7,596.697C6131.56,597.656 6127.41,598.621 6123.27,599.593C6121.43,600.025 6120.28,601.86 6120.7,603.705C6123.62,616.626 6130.39,628.358 6140.12,637.346C6141.51,638.629 6143.67,638.552 6144.97,637.174C6147.88,634.073 6150.79,630.967 6153.69,627.857C6157.57,630.956 6161.89,633.452 6166.52,635.261C6165.27,639.33 6164.04,643.401 6162.81,647.474C6162.26,649.284 6163.28,651.196 6165.08,651.758C6177.73,655.691 6191.28,655.691 6203.93,651.758C6205.73,651.196 6206.75,649.284 6206.2,647.474C6204.97,643.401 6203.74,639.33 6202.5,635.261C6207.12,633.452 6211.44,630.956 6215.32,627.857C6218.22,630.967 6221.13,634.073 6224.04,637.174C6225.34,638.552 6227.5,638.629 6228.89,637.346C6238.62,628.358 6245.4,616.626 6248.31,603.705C6248.73,601.86 6247.58,600.025 6245.74,599.593C6241.6,598.621 6237.45,597.656 6233.31,596.697C6234.06,591.789 6234.06,586.797 6233.31,581.889C6237.45,580.93 6241.6,579.965 6245.74,578.993C6247.58,578.561 6248.73,576.726 6248.31,574.881C6245.4,561.96 6238.62,550.229 6228.89,541.24C6227.5,539.957 6225.34,540.034 6224.04,541.412C6221.13,544.514 6218.22,547.619 6215.32,550.729C6211.44,547.631 6207.12,545.134 6202.5,543.325C6203.74,539.256 6204.97,535.185 6206.2,531.112ZM6198.59,532.487C6197.38,536.482 6196.17,540.476 6194.94,544.467C6194.39,546.278 6195.4,548.196 6197.21,548.762C6203.17,550.631 6208.65,553.795 6213.26,558.027C6214.65,559.309 6216.82,559.225 6218.11,557.84C6220.95,554.786 6223.8,551.736 6226.66,548.691C6233.27,555.555 6238.11,563.931 6240.74,573.089C6236.68,574.039 6232.61,574.983 6228.55,575.92C6226.7,576.346 6225.55,578.18 6225.96,580.028C6227.32,586.129 6227.32,592.457 6225.96,598.559C6225.55,600.406 6226.7,602.241 6228.55,602.666C6232.61,603.604 6236.68,604.547 6240.74,605.497C6238.11,614.655 6233.27,623.031 6226.66,629.895C6223.8,626.85 6220.95,623.8 6218.11,620.746C6216.82,619.361 6214.65,619.278 6213.26,620.559C6208.65,624.791 6203.17,627.955 6197.21,629.825C6195.4,630.391 6194.39,632.309 6194.94,634.119C6196.17,638.111 6197.38,642.104 6198.59,646.099C6189.34,648.393 6179.67,648.393 6170.42,646.099C6171.63,642.104 6172.85,638.111 6174.07,634.119C6174.62,632.309 6173.61,630.391 6171.8,629.825C6165.84,627.955 6160.36,624.791 6155.76,620.559C6154.36,619.278 6152.2,619.361 6150.9,620.746C6148.06,623.8 6145.21,626.85 6142.35,629.895C6135.74,623.031 6130.91,614.655 6128.27,605.497C6132.33,604.547 6136.4,603.604 6140.47,602.666C6142.31,602.241 6143.47,600.406 6143.05,598.559C6141.69,592.457 6141.69,586.129 6143.05,580.028C6143.47,578.18 6142.31,576.346 6140.47,575.92C6136.4,574.983 6132.33,574.039 6128.27,573.089C6130.91,563.931 6135.74,555.555 6142.35,548.691C6145.21,551.736 6148.06,554.786 6150.9,557.84C6152.2,559.225 6154.36,559.309 6155.76,558.027C6160.36,553.795 6165.84,550.631 6171.8,548.762C6173.61,548.196 6174.62,546.278 6174.07,544.467C6172.85,540.476 6171.63,536.482 6170.42,532.487C6179.67,530.193 6189.34,530.193 6198.59,532.487L6198.59,532.487ZM6184.51,562.101C6169.5,562.101 6157.31,574.285 6157.31,589.293C6157.31,604.301 6169.5,616.486 6184.51,616.486C6199.51,616.486 6211.7,604.301 6211.7,589.293C6211.7,574.285 6199.51,562.101 6184.51,562.101ZM6184.51,568.988C6195.71,568.988 6204.81,578.087 6204.81,589.293C6204.81,600.5 6195.71,609.598 6184.51,609.598C6173.3,609.598 6164.2,600.5 6164.2,589.293C6164.2,578.087 6173.3,568.988 6184.51,568.988Z" style="fill:rgb(18,15,47);"/>
            </g>
            <g transform="matrix(1.57335,0,0,1.1094,-3567.33,1335.95)">
                <path d="M5691.24,259.567C5690.81,259.805 5688.52,261.082 5687.73,261.742C5686.53,262.729 5685.79,263.844 5685.38,264.859C5684.37,267.329 5684.4,269.937 5686.86,272.531C5700.93,287.343 5720.77,298.661 5736.79,311.64C5739.58,313.901 5743.68,313.471 5745.94,310.681C5748.2,307.89 5747.78,303.79 5744.98,301.529C5731.12,290.296 5714.25,280.427 5701.06,268.242C5704.37,265.251 5707.66,262.24 5710.92,259.187C5720.71,250.016 5729.67,240.094 5738.55,230.048C5740.93,227.357 5740.68,223.241 5737.98,220.863C5735.3,218.484 5731.18,218.738 5728.8,221.429C5720.19,231.169 5711.51,240.799 5702.02,249.691C5698.46,253.023 5694.87,256.306 5691.24,259.567Z" style="fill:rgb(18,15,47);"/>
            </g>
            <g transform="matrix(-1.57335,0,0,1.1094,14643.6,1335.95)">
                <path d="M5701.06,268.242C5714.25,280.427 5731.12,290.296 5744.98,301.529C5747.78,303.79 5748.2,307.89 5745.94,310.681C5743.68,313.471 5739.58,313.901 5736.79,311.64C5720.77,298.661 5700.93,287.343 5686.86,272.531C5684.4,269.937 5684.37,267.329 5685.38,264.859C5685.79,263.844 5686.53,262.729 5687.73,261.742C5688.52,261.082 5690.81,259.805 5691.24,259.567C5694.87,256.306 5698.46,253.023 5702.02,249.691C5711.51,240.799 5720.19,231.169 5728.8,221.429C5731.18,218.738 5735.3,218.484 5737.98,220.863C5740.68,223.241 5740.93,227.357 5738.55,230.048C5729.67,240.094 5720.71,250.016 5710.92,259.187C5707.66,262.24 5704.37,265.251 5701.06,268.242Z" style="fill:rgb(18,15,47);"/>
            </g>
            <g transform="matrix(1.57335,0,0,1.1094,-3557.81,1335.95)">
                <path d="M5788.81,215.843C5785.97,248.711 5779.7,281.227 5773.66,313.631" style="fill:white;"/>
            </g>
            <g transform="matrix(1.57335,0,0,1.1094,-3557.81,1335.95)">
                <path d="M5782.33,215.282C5779.5,247.938 5773.26,280.243 5767.27,312.439C5766.61,315.97 5768.94,319.37 5772.47,320.028C5776,320.686 5779.4,318.353 5780.06,314.823C5786.14,282.21 5792.43,249.483 5795.29,216.403C5795.6,212.825 5792.95,209.669 5789.37,209.36C5785.79,209.05 5782.64,211.704 5782.33,215.282Z" style="fill:rgb(18,15,47);"/>
            </g>
        </g>
    </g>
</svg>
